<svg width="8" height="14" viewBox="0 0 8 14" fill="none" xmlns="http://www.w3.org/2000/svg">
<path d="M1.78523e-05 12.9241V1.90797C-0.00120112 1.71208 0.0600292 1.5203 0.175902 1.35706C0.291775 1.19382 0.457039 1.06652 0.650627 0.991407C0.844215 0.91629 1.05735 0.896751 1.26287 0.935283C1.46839 0.973814 1.65697 1.06867 1.80457 1.20776L7.69313 6.72073C7.88968 6.90551 8 7.15547 8 7.41602C8 7.67656 7.88968 7.92652 7.69313 8.1113L1.80457 13.6243C1.65697 13.7634 1.46839 13.8582 1.26287 13.8967C1.05735 13.9353 0.844215 13.9157 0.650627 13.8406C0.457039 13.7655 0.291775 13.6382 0.175902 13.475C0.0600292 13.3117 -0.00120112 13.1199 1.78523e-05 12.9241Z" fill="#987455"/>
</svg>
