<svg width="1019" height="536" viewBox="0 0 1019 536" fill="none" xmlns="http://www.w3.org/2000/svg">
<path fill-rule="evenodd" clip-rule="evenodd" d="M124.074 1.12424C82.7269 0.463241 41.7269 1.12984 1.0739 3.12424C0.169898 2.41524 -0.163102 1.41524 0.0738976 0.124241C41.5769 -0.207759 82.9109 0.125641 124.074 1.12424Z" fill="#FBF7F1"/>
<path fill-rule="evenodd" clip-rule="evenodd" d="M124.074 1.12378C124.246 2.11538 123.912 2.78208 123.074 3.12378C103.077 2.45718 82.9102 2.12378 62.5742 2.12378C42.0632 2.12408 21.8962 2.79078 2.07422 4.12378C1.40722 4.12378 1.07422 3.79048 1.07422 3.12378C41.7272 1.12938 82.7272 0.462779 124.074 1.12378Z" fill="#B0A295"/>
<path fill-rule="evenodd" clip-rule="evenodd" d="M123.074 3.12402C121.424 9.93772 117.424 14.771 111.074 17.624C77.7412 18.2907 44.4072 18.2907 11.0742 17.624C6.45322 14.2171 3.45322 9.71712 2.07422 4.12402C21.8962 2.79102 42.0632 2.12432 62.5742 2.12402C82.9102 2.12402 103.077 2.45742 123.074 3.12402Z" fill="#6B503A"/>
<path fill-rule="evenodd" clip-rule="evenodd" d="M16.0742 25.1243C46.5712 23.9604 77.2382 23.7937 108.074 24.6243C109.49 26.5394 109.156 28.0394 107.074 29.1243C107.074 27.791 107.074 26.4576 107.074 25.1243C76.7412 25.1243 46.4072 25.1243 16.0742 25.1243Z" fill="#7D6A59"/>
<path fill-rule="evenodd" clip-rule="evenodd" d="M16.0742 25.124C46.4072 25.124 76.7412 25.124 107.074 25.124C107.074 26.4573 107.074 27.7907 107.074 29.124C106.546 30.3446 105.879 31.5113 105.074 32.624C76.4072 33.2907 47.7412 33.2907 19.0742 32.624C16.8812 30.5987 15.8812 28.0987 16.0742 25.124Z" fill="#6B513A"/>
<path fill-rule="evenodd" clip-rule="evenodd" d="M106.074 38.1239C106.074 38.7906 106.074 39.4572 106.074 40.1239C84.3032 40.3942 62.4692 40.0609 40.5742 39.1239C35.2362 39.6038 30.0692 40.2704 25.0742 41.1239C25.0742 48.1239 25.0742 55.1239 25.0742 62.1239C25.0742 62.7909 24.7412 63.1239 24.0742 63.1239C23.4232 63.7149 22.7562 64.3809 22.0742 65.1239C21.4672 64.9999 21.1342 64.6669 21.0742 64.1239C22.0662 56.308 22.4002 48.308 22.0742 40.1239C20.7412 40.1239 19.4072 40.1239 18.0742 40.1239C18.0742 39.1239 18.0742 38.1239 18.0742 37.1239C47.5792 36.7925 76.9122 37.1258 106.074 38.1239Z" fill="#644C36"/>
<path fill-rule="evenodd" clip-rule="evenodd" d="M106.074 40.124C105.365 41.028 104.365 41.3613 103.074 41.124C103.074 48.7907 103.074 56.4573 103.074 64.124C102.407 56.6136 101.741 48.9469 101.074 41.124C100.077 48.4272 99.7432 55.7605 100.074 63.124C99.4072 63.124 99.0742 62.791 99.0742 62.124C99.0742 55.124 99.0742 48.124 99.0742 41.124C95.4072 41.124 91.7412 41.124 88.0742 41.124C88.3712 48.5444 88.0382 55.8777 87.0742 63.124C86.2002 65.314 84.5332 66.314 82.0742 66.124C82.1412 64.665 81.8082 63.332 81.0742 62.124C81.0742 55.124 81.0742 48.124 81.0742 41.124C76.4072 41.124 71.7412 41.124 67.0742 41.124C67.3712 48.5444 67.0382 55.8777 66.0742 63.124C65.1702 63.833 64.8372 64.833 65.0742 66.124C63.0742 66.124 61.0742 66.124 59.0742 66.124C59.3452 64.244 58.6782 62.911 57.0742 62.124C57.0742 55.124 57.0742 48.124 57.0742 41.124C52.7412 41.124 48.4072 41.124 44.0742 41.124C44.0742 48.124 44.0742 55.124 44.0742 62.124C42.7682 63.091 42.1012 64.425 42.0742 66.124C41.0742 66.124 40.0742 66.124 39.0742 66.124C39.0472 64.425 38.3802 63.091 37.0742 62.124C37.0742 55.124 37.0742 48.124 37.0742 41.124C33.0742 41.124 29.0742 41.124 25.0742 41.124C30.0692 40.2705 35.2362 39.6039 40.5742 39.124C62.4692 40.061 84.3032 40.3943 106.074 40.124Z" fill="#6C533D"/>
<path fill-rule="evenodd" clip-rule="evenodd" d="M103.073 64.124C102.731 64.962 102.065 65.296 101.073 65.124C101.245 64.132 100.911 63.466 100.073 63.124C99.7418 55.7605 100.076 48.4272 101.073 41.124C101.74 48.9469 102.406 56.6136 103.073 64.124Z" fill="#5F442C"/>
<path fill-rule="evenodd" clip-rule="evenodd" d="M18.0742 40.124C19.4072 40.124 20.7412 40.124 22.0742 40.124C22.4002 48.3081 22.0662 56.3081 21.0742 64.124C21.3992 56.2724 21.0662 48.6058 20.0742 41.124C19.0822 41.2956 18.4162 40.9622 18.0742 40.124Z" fill="#7F6B57"/>
<path fill-rule="evenodd" clip-rule="evenodd" d="M25.0742 41.124C29.0742 41.124 33.0742 41.124 37.0742 41.124C37.0742 48.124 37.0742 55.124 37.0742 62.124C36.0832 55.645 35.7502 48.9783 36.0742 42.124C32.7412 42.124 29.4072 42.124 26.0742 42.124C26.3982 48.9783 26.0652 55.645 25.0742 62.124C25.0742 55.124 25.0742 48.124 25.0742 41.124Z" fill="#C7C0B4"/>
<path fill-rule="evenodd" clip-rule="evenodd" d="M99.0742 62.124C98.0832 55.645 97.7502 48.9783 98.0742 42.124C95.0742 42.124 92.0742 42.124 89.0742 42.124C89.7022 49.5371 89.0352 56.5371 87.0742 63.124C88.0382 55.8777 88.3712 48.5444 88.0742 41.124C91.7412 41.124 95.4072 41.124 99.0742 41.124C99.0742 48.124 99.0742 55.124 99.0742 62.124Z" fill="#D1CAC1"/>
<path fill-rule="evenodd" clip-rule="evenodd" d="M106.074 38.124C107.008 39.1916 107.342 40.525 107.074 42.124C106.074 42.124 105.074 42.124 104.074 42.124C104.074 50.124 104.074 58.124 104.074 66.124C102.783 66.361 101.783 66.028 101.074 65.124C102.066 65.296 102.732 64.962 103.074 64.124C103.074 56.4573 103.074 48.7907 103.074 41.124C104.365 41.3613 105.365 41.028 106.074 40.124C106.074 39.4573 106.074 38.7907 106.074 38.124Z" fill="#C2B8AD"/>
<path fill-rule="evenodd" clip-rule="evenodd" d="M57.0742 62.124C56.0832 55.645 55.7502 48.9783 56.0742 42.124C52.4072 42.124 48.7412 42.124 45.0742 42.124C45.3982 48.9783 45.0652 55.645 44.0742 62.124C44.0742 55.124 44.0742 48.124 44.0742 41.124C48.4072 41.124 52.7412 41.124 57.0742 41.124C57.0742 48.124 57.0742 55.124 57.0742 62.124Z" fill="#CBC5B9"/>
<path fill-rule="evenodd" clip-rule="evenodd" d="M20.0739 41.124C21.0659 48.6058 21.3989 56.2724 21.0739 64.124C21.1339 64.667 21.4669 65 22.0739 65.124C22.7559 64.381 23.4229 63.715 24.0739 63.124C24.0739 64.457 24.0739 65.791 24.0739 67.124C22.7519 67.294 21.5849 66.961 20.5739 66.124C20.0739 57.7973 19.9079 49.464 20.0739 41.124Z" fill="#D2CABF"/>
<path fill-rule="evenodd" clip-rule="evenodd" d="M81.0742 62.124C80.0832 55.645 79.7502 48.9783 80.0742 42.124C76.0742 42.124 72.0742 42.124 68.0742 42.124C68.7022 49.5371 68.0352 56.5371 66.0742 63.124C67.0382 55.8777 67.3712 48.5444 67.0742 41.124C71.7412 41.124 76.4072 41.124 81.0742 41.124C81.0742 48.124 81.0742 55.124 81.0742 62.124Z" fill="#C5BAAE"/>
<path fill-rule="evenodd" clip-rule="evenodd" d="M18.0742 72.1237C47.2362 71.1257 76.5692 70.7927 106.074 71.1237C106.074 72.4567 106.074 73.7907 106.074 75.1237C76.5692 75.4547 47.2362 75.1217 18.0742 74.1237C134.074 73.4567 134.074 72.7907 18.0742 72.1237Z" fill="#756251"/>
<path fill-rule="evenodd" clip-rule="evenodd" d="M18.0742 72.124C134.074 72.791 134.074 73.457 18.0742 74.124C18.0742 73.457 18.0742 72.791 18.0742 72.124Z" fill="#5C442F"/>
<path fill-rule="evenodd" clip-rule="evenodd" d="M381.074 79.124C362.753 77.791 344.086 77.124 325.074 77.124C306.062 77.124 287.395 77.791 269.074 79.124C268.17 78.415 267.837 77.415 268.074 76.124C306.074 76.124 344.074 76.124 382.074 76.124C382.311 77.415 381.978 78.415 381.074 79.124Z" fill="#CBC5BC"/>
<path fill-rule="evenodd" clip-rule="evenodd" d="M381.074 79.124C379.974 80.901 379.14 82.901 378.574 85.124C377.866 86.005 377.032 86.671 376.074 87.124C377.35 84.288 378.016 81.288 378.074 78.124C341.903 77.792 305.903 78.126 270.074 79.124C269.741 79.124 269.407 79.124 269.074 79.124C287.395 77.791 306.062 77.124 325.074 77.124C344.086 77.124 362.753 77.791 381.074 79.124Z" fill="#756252"/>
<path fill-rule="evenodd" clip-rule="evenodd" d="M13.0742 79.1242C45.7422 78.9572 78.4092 79.1242 111.074 79.6242C112.407 80.9572 112.407 82.2912 111.074 83.6242C78.4092 84.1242 45.7422 84.2912 13.0742 84.1242C13.0742 82.4572 13.0742 80.7912 13.0742 79.1242Z" fill="#664D38"/>
<path fill-rule="evenodd" clip-rule="evenodd" d="M376.074 87.1242C374.454 89.6082 372.121 91.1082 369.074 91.6242C338.741 92.2912 308.407 92.2912 278.074 91.6242C273.504 88.5772 270.838 84.4112 270.074 79.1242C305.903 78.1262 341.903 77.7922 378.074 78.1242C378.016 81.2882 377.35 84.2882 376.074 87.1242Z" fill="#6A4F38"/>
<path fill-rule="evenodd" clip-rule="evenodd" d="M18.0742 89.1237C47.5692 88.1257 77.2362 87.7927 107.074 88.1237C107.311 89.4147 106.978 90.4147 106.074 91.1237C77.0932 89.1317 47.7602 88.4647 18.0742 89.1237Z" fill="#836F5D"/>
<path fill-rule="evenodd" clip-rule="evenodd" d="M18.0742 89.1236C47.7602 88.4646 77.0932 89.1316 106.074 91.1236C76.9122 92.1216 47.5792 92.4546 18.0742 92.1236C18.0742 91.1236 18.0742 90.1236 18.0742 89.1236Z" fill="#664E3A"/>
<path fill-rule="evenodd" clip-rule="evenodd" d="M366.073 102.124C365.169 101.415 364.836 100.415 365.073 99.1243C338.398 98.7913 311.731 99.1243 285.073 100.124C284.33 100.806 283.664 101.473 283.073 102.124C281.772 100.74 281.772 99.2403 283.073 97.6243C311.073 96.9573 339.073 96.9573 367.073 97.6243C368.616 99.6693 368.283 101.169 366.073 102.124Z" fill="#715A45"/>
<path fill-rule="evenodd" clip-rule="evenodd" d="M22.0741 437.124C21.0741 323.959 20.7411 210.625 21.0741 97.124C48.4071 97.124 75.7411 97.124 103.074 97.124C103.241 210.458 103.074 323.791 102.574 437.124C75.6431 438.456 48.8101 438.456 22.0741 437.124Z" fill="#84705E"/>
<path fill-rule="evenodd" clip-rule="evenodd" d="M366.074 102.124C365.34 103.332 365.007 104.665 365.074 106.124C338.407 106.124 311.741 106.124 285.074 106.124C285.345 104.244 284.678 102.911 283.074 102.124C283.665 101.473 284.331 100.806 285.074 100.124C311.732 99.1239 338.399 98.7909 365.074 99.1239C364.837 100.415 365.17 101.415 366.074 102.124Z" fill="#715741"/>
<path fill-rule="evenodd" clip-rule="evenodd" d="M22.0742 437.124C22.0742 324.124 22.0742 211.124 22.0742 98.124C48.4072 98.124 74.7412 98.124 101.074 98.124C101.074 211.124 101.074 324.124 101.074 437.124C74.7412 437.124 48.4072 437.124 22.0742 437.124Z" fill="#614731"/>
<path fill-rule="evenodd" clip-rule="evenodd" d="M24.0742 99.124C49.4072 99.124 74.7412 99.124 100.074 99.124C100.074 211.457 100.074 323.791 100.074 436.124C74.7382 436.291 49.4052 436.124 24.0742 435.624C24.0782 323.665 24.0782 211.498 24.0742 99.124Z" fill="#6A4F37"/>
<path fill-rule="evenodd" clip-rule="evenodd" d="M365.074 110.124C364.753 111.672 363.753 112.339 362.074 112.124C362.24 119.798 362.074 127.465 361.574 135.124C361.191 134.568 360.691 134.235 360.074 134.124C360.074 133.457 359.741 133.124 359.074 133.124C359.074 126.457 359.074 119.791 359.074 113.124C355.741 113.124 352.407 113.124 349.074 113.124C349.074 119.457 349.074 125.791 349.074 132.124C347.762 133.436 346.428 134.77 345.074 136.124C344.286 134.854 343.286 133.854 342.074 133.124C342.074 126.457 342.074 119.791 342.074 113.124C337.741 113.124 333.407 113.124 329.074 113.124C329.074 119.791 329.074 126.457 329.074 133.124C328.17 133.833 327.837 134.833 328.074 136.124C324.267 136.85 321.6 135.517 320.074 132.124C320.074 125.791 320.074 119.457 320.074 113.124C316.407 113.124 312.741 113.124 309.074 113.124C309.074 119.457 309.074 125.791 309.074 132.124C307.768 133.091 307.101 134.425 307.074 136.124C304.91 135.903 303.244 134.903 302.074 133.124C302.074 126.457 302.074 119.791 302.074 113.124C298.407 113.124 294.741 113.124 291.074 113.124C291.074 119.791 291.074 126.457 291.074 133.124C290.074 133.457 289.407 134.124 289.074 135.124C288.407 127.791 287.741 120.457 287.074 113.124C286.074 113.124 285.074 113.124 284.074 113.124C283.904 111.802 284.237 110.635 285.074 109.624C311.91 108.794 338.577 108.96 365.074 110.124Z" fill="#6E5540"/>
<path fill-rule="evenodd" clip-rule="evenodd" d="M359.074 133.124C358.084 126.979 357.751 120.646 358.074 114.124C355.407 114.124 352.741 114.124 350.074 114.124C350.397 120.314 350.064 126.314 349.074 132.124C349.074 125.791 349.074 119.457 349.074 113.124C352.407 113.124 355.741 113.124 359.074 113.124C359.074 119.791 359.074 126.457 359.074 133.124Z" fill="#D0C8BE"/>
<path fill-rule="evenodd" clip-rule="evenodd" d="M342.074 133.124C341.084 126.979 340.751 120.646 341.074 114.124C337.407 114.124 333.741 114.124 330.074 114.124C330.397 120.646 330.064 126.979 329.074 133.124C329.074 126.457 329.074 119.791 329.074 113.124C333.407 113.124 337.741 113.124 342.074 113.124C342.074 119.791 342.074 126.457 342.074 133.124Z" fill="#BBB0A4"/>
<path fill-rule="evenodd" clip-rule="evenodd" d="M302.074 133.124C301.084 126.979 300.751 120.646 301.074 114.124C298.074 114.124 295.074 114.124 292.074 114.124C292.397 120.646 292.064 126.979 291.074 133.124C291.074 126.457 291.074 119.791 291.074 113.124C294.741 113.124 298.407 113.124 302.074 113.124C302.074 119.791 302.074 126.457 302.074 133.124Z" fill="#C3BAB0"/>
<path fill-rule="evenodd" clip-rule="evenodd" d="M365.074 110.124C365.978 110.833 366.311 111.833 366.074 113.124C365.074 113.124 364.074 113.124 363.074 113.124C363.074 120.791 363.074 128.457 363.074 136.124C361.395 136.339 360.395 135.672 360.074 134.124C360.691 134.235 361.191 134.568 361.574 135.124C362.074 127.465 362.24 119.798 362.074 112.124C363.753 112.339 364.753 111.672 365.074 110.124Z" fill="#9B897A"/>
<path fill-rule="evenodd" clip-rule="evenodd" d="M287.073 113.124C287.74 120.457 288.406 127.791 289.073 135.124C289.013 135.667 288.68 136 288.073 136.124C287.076 128.486 286.742 120.82 287.073 113.124Z" fill="#938273"/>
<path fill-rule="evenodd" clip-rule="evenodd" d="M320.074 132.124C319.084 126.314 318.751 120.314 319.074 114.124C316.074 114.124 313.074 114.124 310.074 114.124C310.397 120.314 310.064 126.314 309.074 132.124C309.074 125.791 309.074 119.457 309.074 113.124C312.741 113.124 316.407 113.124 320.074 113.124C320.074 119.457 320.074 125.791 320.074 132.124Z" fill="#E6E2DB"/>
<path fill-rule="evenodd" clip-rule="evenodd" d="M365.074 141.124C352.091 142.457 338.758 143.123 325.074 143.124C311.39 143.123 298.057 142.457 285.074 141.124C311.741 139.791 338.407 139.791 365.074 141.124Z" fill="#705843"/>
<path fill-rule="evenodd" clip-rule="evenodd" d="M285.074 141.124C298.057 142.457 311.39 143.123 325.074 143.124C338.758 143.123 352.091 142.457 365.074 141.124C365.978 141.833 366.311 142.833 366.074 144.124C338.741 144.124 311.407 144.124 284.074 144.124C283.837 142.833 284.17 141.833 285.074 141.124Z" fill="#755F4C"/>
<path fill-rule="evenodd" clip-rule="evenodd" d="M280.074 148.124C310.074 148.124 340.074 148.124 370.074 148.124C370.288 149.768 369.954 151.268 369.074 152.624C339.409 153.124 309.743 153.291 280.074 153.124C280.074 151.457 280.074 149.791 280.074 148.124Z" fill="#6D5541"/>
<path fill-rule="evenodd" clip-rule="evenodd" d="M365.074 157.124C366.407 157.791 366.407 158.457 365.074 159.124C258.407 158.457 258.407 157.791 365.074 157.124Z" fill="#5F442D"/>
<path fill-rule="evenodd" clip-rule="evenodd" d="M365.074 157.124C258.407 157.791 258.407 158.457 365.074 159.124C338.246 160.122 311.246 160.455 284.074 160.124C284.074 158.791 284.074 157.457 284.074 156.124C311.246 155.793 338.246 156.126 365.074 157.124Z" fill="#826F5E"/>
<path fill-rule="evenodd" clip-rule="evenodd" d="M289.074 165.124C289.074 224.791 289.074 284.457 289.074 344.124C313.074 344.124 337.074 344.124 361.074 344.124C361.074 284.457 361.074 224.791 361.074 165.124C362.073 224.955 362.406 284.955 362.074 345.124C362.074 345.457 362.074 345.791 362.074 346.124C337.235 346.455 312.568 346.122 288.074 345.124C287.742 284.955 288.075 224.955 289.074 165.124Z" fill="#644B36"/>
<path fill-rule="evenodd" clip-rule="evenodd" d="M362.074 345.124C362.406 284.955 362.073 224.955 361.074 165.124C337.074 165.124 313.074 165.124 289.074 165.124C288.075 224.955 287.742 284.955 288.074 345.124C287.741 345.124 287.407 345.124 287.074 345.124C286.907 284.79 287.074 224.456 287.574 164.124C300.001 163.462 312.501 163.129 325.074 163.124C337.647 163.129 350.147 163.462 362.574 164.124C363.406 224.625 363.239 284.959 362.074 345.124Z" fill="#7B6755"/>
<path fill-rule="evenodd" clip-rule="evenodd" d="M289.074 165.124C313.074 165.124 337.074 165.124 361.074 165.124C361.074 224.791 361.074 284.457 361.074 344.124C337.074 344.124 313.074 344.124 289.074 344.124C289.074 284.457 289.074 224.791 289.074 165.124Z" fill="#6A4E37"/>
<path fill-rule="evenodd" clip-rule="evenodd" d="M464.074 253.124C457.929 254.114 451.596 254.447 445.074 254.124C445.376 256.683 445.042 259.017 444.074 261.124C444.074 258.457 444.074 255.791 444.074 253.124C450.741 253.124 457.407 253.124 464.074 253.124Z" fill="#978676"/>
<path fill-rule="evenodd" clip-rule="evenodd" d="M464.074 253.124C483.424 252.898 502.757 253.231 522.074 254.124C524.089 255.548 526.422 256.214 529.074 256.124C529.407 256.124 529.741 256.124 530.074 256.124C532.089 257.548 534.422 258.214 537.074 258.124C551.578 263.778 564.078 272.445 574.574 284.124C576.932 286.846 578.765 289.846 580.074 293.124C581.17 299.316 583.836 304.649 588.074 309.124C588.297 312.786 589.297 316.119 591.074 319.124C592.008 320.192 592.342 321.525 592.074 323.124C592.609 339.284 593.275 355.284 594.074 371.124C594.074 371.791 594.407 372.124 595.074 372.124C595.074 372.791 595.407 373.124 596.074 373.124C596.074 373.457 596.074 373.791 596.074 374.124C706.074 374.795 816.744 375.461 928.074 376.124C919.584 394.437 910.584 412.437 901.074 430.124C901.204 429.385 901.034 428.718 900.574 428.124C779.285 430.121 657.785 430.788 536.074 430.124C536.397 423.934 536.064 417.934 535.074 412.124C533.714 409.609 532.714 409.942 532.074 413.124C532.074 413.457 532.074 413.791 532.074 414.124C526.946 425.037 518.279 431.037 506.074 432.124C476.074 432.124 446.074 432.124 416.074 432.124C416.074 412.791 416.074 393.457 416.074 374.124C455.578 374.456 494.911 374.123 534.074 373.124C534.074 363.124 534.074 353.124 534.074 343.124C534.664 337.984 533.664 333.317 531.074 329.124C527.794 321.506 522.127 316.839 514.074 315.124C512.36 313.886 510.36 313.219 508.074 313.124C477.741 312.457 447.407 311.791 417.074 311.124C426.752 300.097 434.419 287.764 440.074 274.124C442.229 272.007 443.229 269.34 443.074 266.124C442.79 264.209 443.123 262.543 444.074 261.124C445.042 259.017 445.376 256.683 445.074 254.124C451.596 254.447 457.929 254.114 464.074 253.124Z" fill="#6A4F38"/>
<path fill-rule="evenodd" clip-rule="evenodd" d="M522.074 254.124C524.726 254.034 527.059 254.7 529.074 256.124C526.422 256.214 524.089 255.548 522.074 254.124Z" fill="#CAC1B6"/>
<path fill-rule="evenodd" clip-rule="evenodd" d="M530.074 256.124C532.726 256.034 535.059 256.7 537.074 258.124C534.422 258.214 532.089 257.548 530.074 256.124Z" fill="#CCC3B8"/>
<path fill-rule="evenodd" clip-rule="evenodd" d="M948.074 265.124C948.544 266.53 949.544 267.197 951.074 267.124C970.614 280.012 982.614 298.012 987.074 321.124C987.844 328.292 988.844 335.292 990.074 342.124C989.904 355.461 990.074 368.795 990.574 382.124C992.154 400.563 999.654 416.063 1013.07 428.624C1014.1 429.137 1015.1 429.637 1016.07 430.124C1016.18 430.741 1016.51 431.241 1017.07 431.624C995.744 432.124 974.414 432.291 953.074 432.124C943.594 429.318 936.934 423.318 933.074 414.124C932.774 412.221 932.114 410.554 931.074 409.124C931.404 385.618 931.074 362.285 930.074 339.124C927.974 324.03 919.314 315.697 904.074 314.124C904.074 313.791 904.074 313.457 904.074 313.124C904.074 312.791 904.074 312.457 904.074 312.124C822.404 311.457 740.741 310.791 659.074 310.124C659.074 309.457 659.074 308.791 659.074 308.124C668.726 296.492 676.06 283.492 681.074 269.124C682.498 267.109 683.164 264.776 683.074 262.124C683.074 259.457 683.074 256.791 683.074 254.124C760.408 253.957 837.744 254.124 915.074 254.624C926.614 256.39 937.614 259.89 948.074 265.124Z" fill="#6B4F38"/>
<path fill-rule="evenodd" clip-rule="evenodd" d="M684.074 255.124C759.408 254.957 834.744 255.124 910.074 255.624C835.074 256.124 760.075 256.291 685.074 256.124C684.571 261.124 684.238 260.791 684.074 255.124Z" fill="#5D432E"/>
<path fill-rule="evenodd" clip-rule="evenodd" d="M232.074 256.124C234.071 321.115 234.737 386.449 234.074 452.124C234.369 454.359 234.035 456.359 233.074 458.124C233.241 391.123 233.074 324.123 232.574 257.124C230.436 259.073 228.103 260.74 225.574 262.124C224.903 261.372 224.07 261.038 223.074 261.124C225.878 259.219 228.878 257.553 232.074 256.124Z" fill="#72604F"/>
<path fill-rule="evenodd" clip-rule="evenodd" d="M233.074 458.124C229.451 490.376 213.118 513.376 184.074 527.124C182.171 527.42 180.504 528.087 179.074 529.124C177.655 530.075 175.989 530.408 174.074 530.124C172.755 520.665 169.921 511.665 165.574 503.124C159.961 494.35 153.795 486.016 147.074 478.124C148.022 476.646 149.355 475.646 151.074 475.124C164.503 472.191 172.337 463.858 174.574 450.124C174.741 394.956 175.241 339.956 176.074 285.124C181.925 281.03 188.259 277.697 195.074 275.124C197.395 275.395 199.395 274.728 201.074 273.124C201.66 273.333 202.16 273.667 202.574 274.124C206.232 271.558 209.732 268.892 213.074 266.124C216.089 263.95 219.423 262.283 223.074 261.124C224.07 261.038 224.903 261.372 225.574 262.124C228.103 260.74 230.436 259.073 232.574 257.124C233.074 324.123 233.241 391.123 233.074 458.124Z" fill="#6A4F38"/>
<path fill-rule="evenodd" clip-rule="evenodd" d="M232.074 256.124C232.783 255.22 233.783 254.887 235.074 255.124C235.406 320.959 235.073 386.626 234.074 452.124C234.737 386.449 234.071 321.115 232.074 256.124Z" fill="#D2CEC3"/>
<path fill-rule="evenodd" clip-rule="evenodd" d="M948.074 265.124C949.604 265.051 950.604 265.718 951.074 267.124C949.544 267.197 948.544 266.53 948.074 265.124Z" fill="#C6BCB2"/>
<path fill-rule="evenodd" clip-rule="evenodd" d="M683.074 262.124C683.164 264.776 682.498 267.109 681.074 269.124C680.984 266.472 681.65 264.139 683.074 262.124Z" fill="#AC9F92"/>
<path fill-rule="evenodd" clip-rule="evenodd" d="M443.074 266.124C443.229 269.34 442.229 272.007 440.074 274.124C440.703 271.227 441.703 268.56 443.074 266.124Z" fill="#9E8E81"/>
<path fill-rule="evenodd" clip-rule="evenodd" d="M213.074 266.124C209.732 268.892 206.232 271.558 202.574 274.124C202.16 273.667 201.66 273.333 201.074 273.124C199.395 274.728 197.395 275.395 195.074 275.124C200.756 271.616 206.756 268.616 213.074 266.124Z" fill="#796451"/>
<path fill-rule="evenodd" clip-rule="evenodd" d="M580.074 293.124C583.776 297.86 586.442 303.194 588.074 309.124C583.836 304.649 581.17 299.316 580.074 293.124Z" fill="#7A6553"/>
<path fill-rule="evenodd" clip-rule="evenodd" d="M176.074 285.124C176.813 284.993 177.48 285.16 178.074 285.624C177.243 340.387 176.743 395.22 176.574 450.124C176.074 395.125 175.907 340.125 176.074 285.124Z" fill="#5D432D"/>
<path fill-rule="evenodd" clip-rule="evenodd" d="M659.074 310.124C740.741 310.791 822.404 311.457 904.074 312.124C821.744 312.291 739.407 312.124 657.074 311.624C657.618 310.907 658.285 310.407 659.074 310.124Z" fill="#5D432E"/>
<path fill-rule="evenodd" clip-rule="evenodd" d="M416.074 311.124C416.407 311.124 416.741 311.124 417.074 311.124C447.407 311.791 477.741 312.457 508.074 313.124C477.056 313.783 446.389 313.116 416.074 311.124Z" fill="#96887A"/>
<path fill-rule="evenodd" clip-rule="evenodd" d="M588.074 309.124C589.851 312.129 590.851 315.462 591.074 319.124C589.297 316.119 588.297 312.786 588.074 309.124Z" fill="#9E8F80"/>
<path fill-rule="evenodd" clip-rule="evenodd" d="M659.074 308.124C659.074 308.791 659.074 309.457 659.074 310.124C658.285 310.407 657.618 310.907 657.074 311.624C739.407 312.124 821.744 312.291 904.074 312.124C904.074 312.457 904.074 312.791 904.074 313.124C820.904 313.457 737.906 313.123 655.074 312.124C656.074 310.457 657.407 309.124 659.074 308.124Z" fill="#776150"/>
<path fill-rule="evenodd" clip-rule="evenodd" d="M416.074 311.124C446.389 313.116 477.056 313.783 508.074 313.124C510.36 313.219 512.36 313.886 514.074 315.124C481.099 314.152 448.099 313.819 415.074 314.124C414.837 312.833 415.17 311.833 416.074 311.124Z" fill="#EBE9E2"/>
<path fill-rule="evenodd" clip-rule="evenodd" d="M655.074 312.124C737.906 313.123 820.904 313.457 904.074 313.124C904.074 313.457 904.074 313.791 904.074 314.124C820.734 314.457 737.405 314.124 654.074 313.124C654.198 312.517 654.531 312.184 655.074 312.124Z" fill="#CFC4B9"/>
<path fill-rule="evenodd" clip-rule="evenodd" d="M531.074 329.124C533.664 333.317 534.664 337.984 534.074 343.124C533.741 343.124 533.407 343.124 533.074 343.124C533.222 338.305 532.556 333.639 531.074 329.124Z" fill="#CAC2B7"/>
<path fill-rule="evenodd" clip-rule="evenodd" d="M987.074 321.124C989.554 327.771 990.554 334.771 990.074 342.124C988.844 335.292 987.844 328.292 987.074 321.124Z" fill="#AC9E91"/>
<path fill-rule="evenodd" clip-rule="evenodd" d="M287.074 345.124C287.407 345.124 287.741 345.124 288.074 345.124C312.568 346.122 337.235 346.455 362.074 346.124C349.745 346.791 337.245 347.124 324.574 347.124C311.722 347.123 299.222 346.456 287.074 345.124Z" fill="#DCD6D1"/>
<path fill-rule="evenodd" clip-rule="evenodd" d="M592.074 323.124C592.883 324.916 593.383 326.916 593.574 329.124C594.074 343.12 594.241 357.12 594.074 371.124C593.275 355.284 592.609 339.284 592.074 323.124Z" fill="#9A8B7B"/>
<path fill-rule="evenodd" clip-rule="evenodd" d="M284.074 350.124C311.407 350.124 338.741 350.124 366.074 350.124C366.074 351.124 366.074 352.124 366.074 353.124C338.741 353.124 311.407 353.124 284.074 353.124C284.074 352.124 284.074 351.124 284.074 350.124Z" fill="#624932"/>
<path fill-rule="evenodd" clip-rule="evenodd" d="M280.074 357.124C310.074 357.124 340.074 357.124 370.074 357.124C370.074 358.791 370.074 360.457 370.074 362.124C340.074 362.124 310.074 362.124 280.074 362.124C280.074 360.457 280.074 358.791 280.074 357.124Z" fill="#705844"/>
<path fill-rule="evenodd" clip-rule="evenodd" d="M365.076 366.124C338.764 368.115 312.097 368.782 285.076 368.124C284.743 368.124 284.409 368.124 284.076 368.124C283.99 367.128 284.324 366.295 285.076 365.624C311.912 364.794 338.579 364.96 365.076 366.124Z" fill="#695039"/>
<path fill-rule="evenodd" clip-rule="evenodd" d="M365.074 366.124C366.407 367.124 366.407 368.124 365.074 369.124C338.235 369.455 311.569 369.122 285.074 368.124C312.095 368.782 338.762 368.115 365.074 366.124Z" fill="#75614D"/>
<path fill-rule="evenodd" clip-rule="evenodd" d="M284.074 368.124C284.407 368.124 284.741 368.124 285.074 368.124C311.569 369.122 338.235 369.455 365.074 369.124C351.745 369.791 338.245 370.124 324.574 370.124C310.724 370.123 297.224 369.457 284.074 368.124Z" fill="#D5D0C7"/>
<path fill-rule="evenodd" clip-rule="evenodd" d="M533.074 343.124C533.407 343.124 533.741 343.124 534.074 343.124C534.074 353.124 534.074 363.124 534.074 373.124C494.407 373.124 454.741 373.124 415.074 373.124C454.237 372.125 493.57 371.792 533.074 372.124C533.074 362.457 533.074 352.791 533.074 343.124Z" fill="#EBE8E2"/>
<path fill-rule="evenodd" clip-rule="evenodd" d="M304.074 374.124C305.521 372.739 306.521 373.072 307.074 375.124C306.183 374.514 305.183 374.181 304.074 374.124Z" fill="#A3968A"/>
<path fill-rule="evenodd" clip-rule="evenodd" d="M328.074 375.124C326.074 373.791 324.074 373.791 322.074 375.124C322.544 373.931 323.544 373.264 325.074 373.124C326.604 373.264 327.604 373.931 328.074 375.124Z" fill="#A59889"/>
<path fill-rule="evenodd" clip-rule="evenodd" d="M344.074 374.124C345.521 372.739 346.521 373.072 347.074 375.124C346.183 374.514 345.183 374.181 344.074 374.124Z" fill="#A19588"/>
<path fill-rule="evenodd" clip-rule="evenodd" d="M415.074 373.124C454.741 373.124 494.407 373.124 534.074 373.124C494.911 374.123 455.578 374.456 416.074 374.124C416.074 393.457 416.074 412.791 416.074 432.124C446.074 432.124 476.074 432.124 506.074 432.124C475.912 433.122 445.579 433.455 415.074 433.124C415.074 413.124 415.074 393.124 415.074 373.124Z" fill="#958574"/>
<path fill-rule="evenodd" clip-rule="evenodd" d="M596.074 374.124C596.074 373.791 596.074 373.457 596.074 373.124C707.412 372.459 818.414 373.126 929.074 375.124C929.074 375.791 928.744 376.124 928.074 376.124C817.744 374.126 707.079 373.459 596.074 374.124Z" fill="#7E6A58"/>
<path fill-rule="evenodd" clip-rule="evenodd" d="M596.074 374.124C707.079 373.459 817.744 374.126 928.074 376.124C816.744 375.461 706.074 374.795 596.074 374.124Z" fill="#5E422A"/>
<path fill-rule="evenodd" clip-rule="evenodd" d="M361.074 374.124C361.134 373.581 361.467 373.248 362.074 373.124C363.071 380.762 363.405 388.428 363.074 396.124C362.407 388.791 361.741 381.457 361.074 374.124Z" fill="#A08F80"/>
<path fill-rule="evenodd" clip-rule="evenodd" d="M289.073 374.124C288.406 381.457 287.74 388.791 287.073 396.124C286.742 388.428 287.076 380.762 288.073 373.124C288.68 373.248 289.013 373.581 289.073 374.124Z" fill="#948475"/>
<path fill-rule="evenodd" clip-rule="evenodd" d="M289.074 374.124C289.975 374.914 290.642 375.914 291.074 377.124C291.074 383.791 291.074 390.457 291.074 397.124C294.741 397.124 298.407 397.124 302.074 397.124C302.074 390.457 302.074 383.791 302.074 377.124C302.506 375.914 303.173 374.914 304.074 374.124C305.183 374.181 306.183 374.514 307.074 375.124C307.407 376.124 308.074 376.791 309.074 377.124C309.074 383.457 309.074 389.791 309.074 396.124C312.741 396.124 316.407 396.124 320.074 396.124C320.074 389.791 320.074 383.457 320.074 377.124C321.074 376.791 321.741 376.124 322.074 375.124C324.074 373.791 326.074 373.791 328.074 375.124C328.407 375.791 328.741 376.457 329.074 377.124C329.074 383.791 329.074 390.457 329.074 397.124C333.407 397.124 337.741 397.124 342.074 397.124C342.074 390.457 342.074 383.791 342.074 377.124C342.506 375.914 343.173 374.914 344.074 374.124C345.183 374.181 346.183 374.514 347.074 375.124C347.074 375.791 347.407 376.124 348.074 376.124C349.036 383.036 349.369 390.036 349.074 397.124C352.351 397.408 355.517 397.075 358.574 396.124C359.074 389.799 359.24 383.466 359.074 377.124C359.506 375.914 360.173 374.914 361.074 374.124C361.741 381.457 362.407 388.791 363.074 396.124C364.066 395.952 364.732 396.286 365.074 397.124C352.091 398.457 338.758 399.123 325.074 399.124C311.39 399.123 298.057 398.457 285.074 397.124C285.416 396.286 286.082 395.952 287.074 396.124C287.741 388.791 288.407 381.457 289.074 374.124Z" fill="#69503B"/>
<path fill-rule="evenodd" clip-rule="evenodd" d="M930.074 339.124C931.074 362.285 931.404 385.618 931.074 409.124C930.404 397.791 929.744 386.457 929.074 375.124C818.414 373.126 707.412 372.459 596.074 373.124C595.407 373.124 595.074 372.791 595.074 372.124C706.741 372.124 818.404 372.124 930.074 372.124C930.074 361.124 930.074 350.124 930.074 339.124Z" fill="#C4BAAF"/>
<path fill-rule="evenodd" clip-rule="evenodd" d="M309.074 377.124C310.064 382.934 310.397 388.934 310.074 395.124C313.074 395.124 316.074 395.124 319.074 395.124C318.751 388.934 319.084 382.934 320.074 377.124C320.074 383.457 320.074 389.791 320.074 396.124C316.407 396.124 312.741 396.124 309.074 396.124C309.074 389.791 309.074 383.457 309.074 377.124Z" fill="#E8E4DD"/>
<path fill-rule="evenodd" clip-rule="evenodd" d="M329.074 377.124C330.064 383.269 330.397 389.602 330.074 396.124C333.741 396.124 337.407 396.124 341.074 396.124C340.751 389.602 341.084 383.269 342.074 377.124C342.074 383.791 342.074 390.457 342.074 397.124C337.741 397.124 333.407 397.124 329.074 397.124C329.074 390.457 329.074 383.791 329.074 377.124Z" fill="#AEA295"/>
<path fill-rule="evenodd" clip-rule="evenodd" d="M348.074 376.124C350.03 382.036 350.697 388.369 350.074 395.124C352.741 395.124 355.407 395.124 358.074 395.124C357.751 388.934 358.084 382.934 359.074 377.124C359.24 383.466 359.074 389.799 358.574 396.124C355.517 397.075 352.351 397.408 349.074 397.124C349.369 390.036 349.036 383.036 348.074 376.124Z" fill="#CFC6BD"/>
<path fill-rule="evenodd" clip-rule="evenodd" d="M291.074 377.124C292.064 383.269 292.397 389.602 292.074 396.124C295.074 396.124 298.074 396.124 301.074 396.124C300.751 389.602 301.084 383.269 302.074 377.124C302.074 383.791 302.074 390.457 302.074 397.124C298.407 397.124 294.741 397.124 291.074 397.124C291.074 390.457 291.074 383.791 291.074 377.124Z" fill="#B0A599"/>
<path fill-rule="evenodd" clip-rule="evenodd" d="M285.074 397.124C298.057 398.457 311.39 399.123 325.074 399.124C338.758 399.123 352.091 398.457 365.074 397.124C365.978 397.833 366.311 398.833 366.074 400.124C338.741 400.124 311.407 400.124 284.074 400.124C283.837 398.833 284.17 397.833 285.074 397.124Z" fill="#7E6A56"/>
<path fill-rule="evenodd" clip-rule="evenodd" d="M284.074 404.124C311.407 404.124 338.741 404.124 366.074 404.124C366.051 406.224 366.718 408.057 368.074 409.624C367.929 410.396 367.596 411.063 367.074 411.624C339.074 412.291 311.074 412.291 283.074 411.624C282.552 411.063 282.219 410.396 282.074 409.624C283.43 408.057 284.097 406.224 284.074 404.124Z" fill="#6A513B"/>
<path fill-rule="evenodd" clip-rule="evenodd" d="M931.076 409.124C932.116 410.554 932.776 412.221 933.076 414.124C931.366 412.989 930.696 411.322 931.076 409.124Z" fill="#C7BEB4"/>
<path fill-rule="evenodd" clip-rule="evenodd" d="M535.074 412.124C535.074 418.791 535.074 425.457 535.074 432.124C656.741 432.124 778.407 432.124 900.074 432.124C778.074 433.457 656.074 433.457 534.074 432.124C534.24 425.449 534.074 418.782 533.574 412.124C533.191 412.68 532.691 413.013 532.074 413.124C532.714 409.942 533.714 409.609 535.074 412.124Z" fill="#9D8E80"/>
<path fill-rule="evenodd" clip-rule="evenodd" d="M534.074 432.124C533.407 426.124 532.741 420.124 532.074 414.124C532.074 413.791 532.074 413.457 532.074 413.124C532.691 413.013 533.191 412.68 533.574 412.124C534.074 418.782 534.24 425.449 534.074 432.124Z" fill="#D6D1C7"/>
<path fill-rule="evenodd" clip-rule="evenodd" d="M380.074 429.124C380.311 430.415 379.978 431.415 379.074 432.124C342.91 431.291 306.576 430.791 270.074 430.624C273.166 428.834 274.166 426.334 273.074 423.124C274.578 420.788 276.578 418.955 279.074 417.624C309.407 416.957 339.741 416.957 370.074 417.624C375.418 419.795 378.751 423.628 380.074 429.124Z" fill="#6D523B"/>
<path fill-rule="evenodd" clip-rule="evenodd" d="M535.074 412.124C536.064 417.934 536.397 423.934 536.074 430.124C657.785 430.788 779.285 430.121 900.574 428.124C901.034 428.718 901.204 429.385 901.074 430.124C900.744 430.791 900.404 431.457 900.074 432.124C778.407 432.124 656.741 432.124 535.074 432.124C535.074 425.457 535.074 418.791 535.074 412.124Z" fill="#644933"/>
<path fill-rule="evenodd" clip-rule="evenodd" d="M273.074 423.124C274.166 426.334 273.166 428.834 270.074 430.624C306.576 430.791 342.91 431.291 379.074 432.124C342.407 432.124 305.741 432.124 269.074 432.124C269.963 428.854 271.297 425.854 273.074 423.124Z" fill="#6D5441"/>
<path fill-rule="evenodd" clip-rule="evenodd" d="M380.074 429.124C381.008 430.192 381.342 431.525 381.074 433.124C343.57 433.456 306.237 433.122 269.074 432.124C305.741 432.124 342.407 432.124 379.074 432.124C379.978 431.415 380.311 430.415 380.074 429.124Z" fill="#BAAEA3"/>
<path fill-rule="evenodd" clip-rule="evenodd" d="M1016.07 430.124C1017.62 430.445 1018.28 431.445 1018.07 433.124C996.234 433.455 974.564 433.121 953.074 432.124C974.414 432.291 995.744 432.124 1017.07 431.624C1016.51 431.241 1016.18 430.741 1016.07 430.124Z" fill="#BCB1A6"/>
<path fill-rule="evenodd" clip-rule="evenodd" d="M18.0742 444.124C47.4072 444.124 76.7412 444.124 106.074 444.124C106.074 445.457 106.074 446.791 106.074 448.124C76.7412 448.124 47.4072 448.124 18.0742 448.124C18.0742 446.791 18.0742 445.457 18.0742 444.124Z" fill="#705843"/>
<path fill-rule="evenodd" clip-rule="evenodd" d="M111.074 453.124C78.4072 453.124 45.7412 453.124 13.0742 453.124C13.1852 452.507 13.5182 452.007 14.0742 451.624C46.0742 450.957 78.0742 450.957 110.074 451.624C110.63 452.007 110.963 452.507 111.074 453.124Z" fill="#7F6C5A"/>
<path fill-rule="evenodd" clip-rule="evenodd" d="M13.0742 453.124C45.7412 453.124 78.4072 453.124 111.074 453.124C111.074 454.457 111.074 455.791 111.074 457.124C78.4072 457.124 45.7412 457.124 13.0742 457.124C13.0742 455.791 13.0742 454.457 13.0742 453.124Z" fill="#6A513B"/>
<path fill-rule="evenodd" clip-rule="evenodd" d="M818.074 454.124C830.664 465.049 842.664 476.716 854.074 489.124C842.744 501.124 831.074 512.791 819.074 524.124C807.074 512.791 795.404 501.124 784.074 489.124C795.424 477.437 806.764 465.77 818.074 454.124Z" fill="#6B503A"/>
<path fill-rule="evenodd" clip-rule="evenodd" d="M18.0742 461.124C47.4072 461.124 76.7412 461.124 106.074 461.124C106.074 462.457 106.074 463.791 106.074 465.124C76.7412 465.124 47.4072 465.124 18.0742 465.124C18.0742 463.791 18.0742 462.457 18.0742 461.124Z" fill="#69523E"/>
<path fill-rule="evenodd" clip-rule="evenodd" d="M38.0742 470.124C38.4912 469.5 39.1582 469.167 40.0742 469.124C41.2872 469.371 41.9542 470.038 42.0742 471.124C40.8662 470.39 39.5332 470.057 38.0742 470.124Z" fill="#C5BDB5"/>
<path fill-rule="evenodd" clip-rule="evenodd" d="M21.0742 470.124C22.7532 469.909 23.7532 470.576 24.0742 472.124C23.4572 472.013 22.9572 471.68 22.5742 471.124C22.4032 478.968 21.9032 486.635 21.0742 494.124C21.0742 486.124 21.0742 478.124 21.0742 470.124Z" fill="#83705D"/>
<path fill-rule="evenodd" clip-rule="evenodd" d="M103.076 470.124C103.77 478.358 104.437 486.691 105.076 495.124C103.108 487.191 102.441 478.858 103.076 470.124Z" fill="#BFB3A8"/>
<path fill-rule="evenodd" clip-rule="evenodd" d="M38.0742 470.124C39.5332 470.057 40.8662 470.39 42.0742 471.124C42.3572 471.913 42.8572 472.58 43.5742 473.124C44.0742 480.45 44.2402 487.783 44.0742 495.124C48.6062 495.442 52.9402 495.109 57.0742 494.124C57.8062 486.922 58.4732 479.589 59.0742 472.124C59.5442 470.931 60.5442 470.264 62.0742 470.124C64.5562 469.734 65.8892 470.734 66.0742 473.124C66.0742 480.791 66.0742 488.457 66.0742 496.124C77.4072 496.124 88.7412 496.124 100.074 496.124C100.074 488.457 100.074 480.791 100.074 473.124C100.074 471.124 101.074 470.124 103.074 470.124C102.439 478.858 103.106 487.191 105.074 495.124C106.008 496.192 106.342 497.525 106.074 499.124C76.7412 499.124 47.4072 499.124 18.0742 499.124C18.0742 497.791 18.0742 496.457 18.0742 495.124C19.3652 495.361 20.3652 495.028 21.0742 494.124C21.9032 486.635 22.4032 478.968 22.5742 471.124C22.9572 471.68 23.4572 472.013 24.0742 472.124C24.0742 472.791 24.4072 473.124 25.0742 473.124C25.0742 480.457 25.0742 487.791 25.0742 495.124C28.9452 495.439 32.6122 495.106 36.0742 494.124C35.9082 487.116 36.0742 480.116 36.5742 473.124C37.6132 472.38 38.1132 471.38 38.0742 470.124Z" fill="#6B533C"/>
<path fill-rule="evenodd" clip-rule="evenodd" d="M87.0742 474.124C87.0742 481.124 87.0742 488.124 87.0742 495.124C85.0742 494.791 83.0742 494.457 81.0742 494.124C81.0742 487.124 81.0742 480.124 81.0742 473.124C83.3292 469.332 85.3292 469.665 87.0742 474.124Z" fill="#674C35"/>
<path fill-rule="evenodd" clip-rule="evenodd" d="M25.0742 473.124C26.0652 479.937 26.3992 486.937 26.0742 494.124C29.4072 494.124 32.7412 494.124 36.0742 494.124C32.6122 495.106 28.9452 495.439 25.0742 495.124C25.0742 487.791 25.0742 480.457 25.0742 473.124Z" fill="#C0B8AC"/>
<path fill-rule="evenodd" clip-rule="evenodd" d="M151.074 475.124C149.355 475.646 148.022 476.646 147.074 478.124C146.096 477.813 145.429 477.146 145.074 476.124C146.97 475.158 148.97 474.825 151.074 475.124Z" fill="#BFB5AC"/>
<path fill-rule="evenodd" clip-rule="evenodd" d="M59.0739 472.124C58.4729 479.589 57.8059 486.922 57.0739 494.124C56.9079 487.116 57.0739 480.116 57.5739 473.124C57.9569 472.568 58.4569 472.235 59.0739 472.124Z" fill="#8A7A6C"/>
<path fill-rule="evenodd" clip-rule="evenodd" d="M21.0742 470.124C21.0742 478.124 21.0742 486.124 21.0742 494.124C20.3652 495.028 19.3652 495.361 18.0742 495.124C19.6782 486.875 20.6782 478.542 21.0742 470.124Z" fill="#D2CABF"/>
<path fill-rule="evenodd" clip-rule="evenodd" d="M66.0742 473.124C66.4072 473.124 66.7412 473.124 67.0742 473.124C67.0742 480.457 67.0742 487.791 67.0742 495.124C71.4072 495.124 75.7412 495.124 80.0742 495.124C80.0742 487.791 80.0742 480.457 80.0742 473.124C80.4072 473.124 80.7412 473.124 81.0742 473.124C81.0742 480.124 81.0742 487.124 81.0742 494.124C83.0742 494.457 85.0742 494.791 87.0742 495.124C87.0742 488.124 87.0742 481.124 87.0742 474.124C88.0652 480.603 88.3982 487.27 88.0742 494.124C91.5362 495.106 95.2032 495.439 99.0742 495.124C99.0742 488.124 99.0742 481.124 99.0742 474.124C99.0742 473.457 99.4072 473.124 100.074 473.124C100.074 480.791 100.074 488.457 100.074 496.124C88.7412 496.124 77.4072 496.124 66.0742 496.124C66.0742 488.457 66.0742 480.791 66.0742 473.124Z" fill="#79624F"/>
<path fill-rule="evenodd" clip-rule="evenodd" d="M99.0742 474.124C99.0742 481.124 99.0742 488.124 99.0742 495.124C95.2032 495.439 91.5362 495.106 88.0742 494.124C91.4072 494.124 94.7412 494.124 98.0742 494.124C97.7502 487.27 98.0832 480.603 99.0742 474.124Z" fill="#BFB5AB"/>
<path fill-rule="evenodd" clip-rule="evenodd" d="M67.0742 473.124C68.0652 479.937 68.3992 486.937 68.0742 494.124C71.7412 494.124 75.4072 494.124 79.0742 494.124C78.7492 486.937 79.0832 479.937 80.0742 473.124C80.0742 480.457 80.0742 487.791 80.0742 495.124C75.7412 495.124 71.4072 495.124 67.0742 495.124C67.0742 487.791 67.0742 480.457 67.0742 473.124Z" fill="#C5BBB1"/>
<path fill-rule="evenodd" clip-rule="evenodd" d="M18.0742 504.124C47.2382 502.96 76.5712 502.794 106.074 503.624C106.826 504.295 107.16 505.128 107.074 506.124C106.285 505.841 105.618 505.341 105.074 504.624C76.0762 504.124 47.0762 503.957 18.0742 504.124Z" fill="#75604E"/>
<path fill-rule="evenodd" clip-rule="evenodd" d="M18.0742 504.124C47.0762 503.957 76.0762 504.124 105.074 504.624C105.618 505.341 106.285 505.841 107.074 506.124C108.998 507.714 109.331 509.548 108.074 511.624C77.4092 512.124 46.7422 512.291 16.0742 512.124C16.0742 510.457 16.0742 508.791 16.0742 507.124C17.6222 506.803 18.2892 505.803 18.0742 504.124Z" fill="#6D533D"/>
<path fill-rule="evenodd" clip-rule="evenodd" d="M18.0742 504.124C18.2892 505.803 17.6222 506.803 16.0742 507.124C16.5062 505.914 17.1732 504.914 18.0742 504.124Z" fill="#9C8E7E"/>
<path fill-rule="evenodd" clip-rule="evenodd" d="M110.074 518.124C77.0312 517.805 44.0312 518.138 11.0742 519.124C11.1852 518.507 11.5182 518.007 12.0742 517.624C44.9102 516.793 77.5772 516.96 110.074 518.124Z" fill="#C7BBB1"/>
<path fill-rule="evenodd" clip-rule="evenodd" d="M110.074 518.124C116.434 519.817 120.434 523.817 122.074 530.124C122.074 531.124 122.074 532.124 122.074 533.124C82.0742 533.124 42.0742 533.124 2.07422 533.124C2.07422 532.124 2.07422 531.124 2.07422 530.124C3.27522 524.929 6.27522 521.262 11.0742 519.124C44.0312 518.138 77.0312 517.805 110.074 518.124Z" fill="#694F38"/>
<path fill-rule="evenodd" clip-rule="evenodd" d="M184.074 527.124C182.939 528.837 181.272 529.504 179.074 529.124C180.504 528.087 182.171 527.42 184.074 527.124Z" fill="#C2B7AA"/>
<path fill-rule="evenodd" clip-rule="evenodd" d="M2.07511 530.124C2.07511 531.124 2.07511 532.124 2.07511 533.124C42.0751 533.124 82.0751 533.124 122.075 533.124C122.075 532.124 122.075 531.124 122.075 530.124C122.913 530.466 123.247 531.132 123.075 532.124C103.086 533.457 82.7531 534.124 62.0751 534.124C41.3971 534.124 21.0641 533.457 1.07511 532.124C0.90311 531.132 1.23711 530.466 2.07511 530.124Z" fill="#7E6B57"/>
<path fill-rule="evenodd" clip-rule="evenodd" d="M1.0739 532.124C21.0629 533.457 41.3959 534.124 62.0739 534.124C82.7519 534.124 103.085 533.457 123.074 532.124C123.978 532.833 124.311 533.833 124.074 535.124C82.7409 535.124 41.4069 535.124 0.0738976 535.124C-0.163102 533.833 0.169898 532.833 1.0739 532.124Z" fill="#CFC8BC"/>
</svg>
